<?xml version="1.0" encoding="UTF-8"?>
<svg version="1.1" xmlns="http://www.w3.org/2000/svg" width="433" height="130">
<path d="M0 0 C-0.04640625 0.70125 -0.0928125 1.4025 -0.140625 2.125 C-0.40399659 9.0479103 0.52655248 13.03001207 4 19 C4 19.66 4 20.32 4 21 C2.3203125 22.5078125 2.3203125 22.5078125 0.125 24.125 C-0.59429687 24.66382812 -1.31359375 25.20265625 -2.0546875 25.7578125 C-4 27 -4 27 -6 27 C-6.495 28.485 -6.495 28.485 -7 30 C-8.64302953 31.68997323 -10.31471312 33.35216394 -12 35 C-19.49271573 42.51238165 -23.97343503 51.95337622 -24.3125 62.625 C-24.14026452 72.29889289 -20.42939673 79.77811798 -13.72265625 86.6484375 C5.52731653 103.27466937 31.80582542 104.26102158 56 103 C68.50096074 101.75566474 80.78258851 98.78097473 92.88452148 95.48754883 C98.79870226 93.89935113 98.79870226 93.89935113 101 95 C89.01288244 104.25321355 73.47864702 109.97775776 59 114 C58.319375 114.19609863 57.63875 114.39219727 56.9375 114.59423828 C31.11811298 121.74485203 -1.33891419 121.30136716 -25 108 C-38.14690264 100.09665969 -46.09791481 90.64205053 -51.375 76.25 C-54.15742751 62.30887881 -51.68628445 48.29704389 -44.4140625 36.1171875 C-41.82079937 32.23445651 -38.95617411 28.61013588 -36 25 C-35.56300781 24.41605469 -35.12601563 23.83210938 -34.67578125 23.23046875 C-28.0987097 14.79680643 -11.13026758 0 0 0 Z " fill="#BC2E1A" transform="translate(52,12)"/>
<path d="M0 0 C1.45116211 -0.01160156 1.45116211 -0.01160156 2.93164062 -0.0234375 C7.99528813 -0.00957399 12.19895974 0.23632016 16.9375 2.25 C17.06112306 11.54920124 16.76643374 20.81129002 16.30273438 30.09667969 C16.22558446 31.70571309 16.15598488 33.31512539 16.09375 34.92480469 C15.36356251 53.70431418 15.36356251 53.70431418 8.625 60.625 C2.8921144 64.09139594 -2.91930954 64.58214666 -9.4375 64.5 C-10.55306274 64.49419922 -10.55306274 64.49419922 -11.69116211 64.48828125 C-17.05205708 64.40394072 -21.89566399 63.75307957 -27.0625 62.25 C-27.3925 57.63 -27.7225 53.01 -28.0625 48.25 C-20.51406981 49.13065019 -20.51406981 49.13065019 -18.08203125 49.7734375 C-15.83795901 50.30298646 -13.80411191 50.41800667 -11.5 50.4375 C-10.35337891 50.45876953 -10.35337891 50.45876953 -9.18359375 50.48046875 C-6.76096497 50.3823375 -6.76096497 50.3823375 -4.0625 48.25 C-2.85799696 45.69816596 -2.85799696 45.69816596 -2.0625 43.25 C-3.12017578 43.73339844 -3.12017578 43.73339844 -4.19921875 44.2265625 C-10.34306568 46.42258964 -17.5821423 46.31784399 -23.5625 43.625 C-28.13673748 40.95273237 -30.40638686 37.21833941 -32.0625 32.25 C-32.87040453 23.37459162 -32.77713298 15.46290102 -27.0625 8.25 C-19.02163181 1.03576312 -10.43927035 -0.08379347 0 0 Z M-10.0625 14.25 C-12.84633356 17.48526603 -13.96731189 19.57178468 -14.5625 23.8125 C-13.98723669 27.76743527 -12.81075354 29.41586354 -10.0625 32.25 C-7.12806598 31.98343428 -7.12806598 31.98343428 -4.0625 31.25 C-0.32252771 25.64004157 -0.94843593 19.77699931 -1.0625 13.25 C-4.83129503 12.15609127 -6.57456015 12.24443459 -10.0625 14.25 Z " fill="#000000" transform="translate(183.0625,43.75)"/>
<path d="M0 0 C6.6 0 13.2 0 20 0 C21.98 6.93 23.96 13.86 26 21 C27.88086029 15.98437255 29.44124843 11.66824166 30.625 6.5625 C31.89559543 1.10440457 31.89559543 1.10440457 33 0 C34.41570123 -0.08651611 35.835595 -0.10704904 37.25390625 -0.09765625 C38.53491211 -0.09282227 38.53491211 -0.09282227 39.84179688 -0.08789062 C40.73962891 -0.07951172 41.63746094 -0.07113281 42.5625 -0.0625 C43.46419922 -0.05798828 44.36589844 -0.05347656 45.29492188 -0.04882812 C47.53001314 -0.03700225 49.76497437 -0.0205222 52 0 C47.02482736 13.14341427 41.9809366 26.25633165 36.625 39.25 C36.01906006 40.73790039 36.01906006 40.73790039 35.40087891 42.25585938 C31.8135413 50.87740257 28.13901146 57.93049427 19.375 62.3125 C12.934768 63.62439911 6.36990158 63.59247539 0 62 C-0.33 57.71 -0.66 53.42 -1 49 C0.7325 49.103125 2.465 49.20625 4.25 49.3125 C8.05499242 49.28300393 9.60253372 49.25057657 12.875 47.1875 C15.71063876 39.15319017 9.16592363 27.45902078 6.4375 19.75 C5.64274758 17.49541963 4.84972715 15.24022783 4.05859375 12.984375 C3.71111084 12.00178711 3.36362793 11.01919922 3.00561523 10.00683594 C1.90095182 6.70384138 0.95680499 3.34881747 0 0 Z " fill="#000000" transform="translate(328,45)"/>
<path d="M0 0 C1.03543945 -0.0299707 1.03543945 -0.0299707 2.09179688 -0.06054688 C7.21873525 -0.05568722 10.21320805 1.08155992 14.0625 4.4375 C15.8223095 7.97506098 16.31084251 10.82623525 16.29296875 14.75390625 C16.29167969 15.76066406 16.29039062 16.76742187 16.2890625 17.8046875 C16.27617187 18.85914062 16.26328125 19.91359375 16.25 21 C16.24355469 22.07378906 16.23710937 23.14757812 16.23046875 24.25390625 C16.16136542 31.3715488 15.84883594 38.36047658 15.0625 45.4375 C9.1225 45.4375 3.1825 45.4375 -2.9375 45.4375 C-2.92589844 43.52324219 -2.91429688 41.60898438 -2.90234375 39.63671875 C-2.89296583 37.13281347 -2.88386563 34.62890714 -2.875 32.125 C-2.86662109 30.86236328 -2.85824219 29.59972656 -2.84960938 28.29882812 C-2.84638672 27.09033203 -2.84316406 25.88183594 -2.83984375 24.63671875 C-2.83460693 23.52127686 -2.82937012 22.40583496 -2.82397461 21.2565918 C-2.81000746 18.35697938 -2.81000746 18.35697938 -3.9375 15.4375 C-6.2475 15.7675 -8.5575 16.0975 -10.9375 16.4375 C-13.9617695 23.0908929 -14.12381049 30.1852099 -14.5 37.375 C-14.644375 40.035625 -14.78875 42.69625 -14.9375 45.4375 C-20.8775 45.4375 -26.8175 45.4375 -32.9375 45.4375 C-32.6075 30.9175 -32.2775 16.3975 -31.9375 1.4375 C-25.9975 1.4375 -20.0575 1.4375 -13.9375 1.4375 C-13.6075 2.0975 -13.2775 2.7575 -12.9375 3.4375 C-12.27621094 2.95152344 -11.61492187 2.46554688 -10.93359375 1.96484375 C-7.23556771 0.07967011 -4.05464739 -0.04141237 0 0 Z " fill="#000000" transform="translate(127.9375,43.5625)"/>
<path d="M0 0 C0.97646484 -0.020625 1.95292969 -0.04125 2.95898438 -0.0625 C8.39051806 -0.09195917 12.44870643 0.0441716 17.0625 3.25 C20.03689512 6.44151398 20.43127001 8.59227323 20.390625 12.90625 C20.38546875 14.01226562 20.3803125 15.11828125 20.375 16.2578125 C20.354375 17.41023438 20.33375 18.56265625 20.3125 19.75 C20.30734375 20.87148437 20.3021875 21.99296875 20.296875 23.1484375 C20.22840181 30.56066076 19.75570068 37.87076692 19.0625 45.25 C13.1225 45.25 7.1825 45.25 1.0625 45.25 C0.7325 43.93 0.4025 42.61 0.0625 41.25 C-0.9275 43.725 -0.9275 43.725 -1.9375 46.25 C-16.40347006 46.82949732 -16.40347006 46.82949732 -20.9375 43.25 C-23.89886463 38.90666521 -24.49440438 35.44777425 -23.9375 30.25 C-22.35023631 25.28980097 -19.9028455 22.95161039 -15.5390625 20.41015625 C-11.12625333 18.44228189 -6.49493025 17.31044126 -1.81640625 16.14453125 C-0.86636719 15.84933594 0.08367187 15.55414063 1.0625 15.25 C1.3925 14.59 1.7225 13.93 2.0625 13.25 C-0.33361639 13.56044024 -2.72937835 13.87328358 -5.125 14.1875 C-5.79853516 14.27451172 -6.47207031 14.36152344 -7.16601562 14.45117188 C-10.79990055 14.92978111 -14.33808796 15.53011759 -17.9375 16.25 C-17.2775 11.3 -16.6175 6.35 -15.9375 1.25 C-10.50552479 0.16360496 -5.51435963 0.02900386 0 0 Z M-3.5 29.75 C-4.32628906 30.0284375 -5.15257812 30.306875 -6.00390625 30.59375 C-6.64199219 30.8103125 -7.28007812 31.026875 -7.9375 31.25 C-7.6075 32.57 -7.2775 33.89 -6.9375 35.25 C-3.9675 35.25 -0.9975 35.25 2.0625 35.25 C2.0625 32.94 2.0625 30.63 2.0625 28.25 C0.14325164 28.25 -1.70144824 29.14203884 -3.5 29.75 Z " fill="#000000" transform="translate(265.9375,43.75)"/>
<path d="M0 0 C1.24426758 -0.00193359 1.24426758 -0.00193359 2.51367188 -0.00390625 C3.37669922 -0.00003906 4.23972656 0.00382812 5.12890625 0.0078125 C5.98806641 0.00394531 6.84722656 0.00007813 7.73242188 -0.00390625 C8.97862305 -0.00197266 8.97862305 -0.00197266 10.25 0 C11.00595459 0.00112793 11.76190918 0.00225586 12.54077148 0.00341797 C14.73896211 0.13567373 16.60883445 0.41326984 18.69140625 1.1328125 C20.72044322 5.19088645 19.73820105 10.73410127 19.69140625 15.1328125 C15.40140625 14.8028125 11.11140625 14.4728125 6.69140625 14.1328125 C10.00499549 17.54681353 13.42525261 20.63152323 17.140625 23.60546875 C19.89474127 26.3179611 20.6345398 28.63049221 21.06640625 32.4453125 C20.6166448 36.8679668 19.61656041 39.77236754 16.69140625 43.1328125 C7.16067714 48.96795277 -3.85543902 47.04360423 -14.30859375 45.1328125 C-14.63859375 39.8528125 -14.96859375 34.5728125 -15.30859375 29.1328125 C-12.05338542 29.9140625 -8.79817708 30.6953125 -5.54296875 31.4765625 C-2.20528663 32.26537702 -2.20528663 32.26537702 1.69140625 32.1328125 C-1.36947306 28.81685991 -4.76656104 26.23136592 -8.40625 23.59765625 C-13.03832265 20.03086519 -13.03832265 20.03086519 -13.92578125 17.08203125 C-14.51895701 11.87826206 -14.40498404 8.61723981 -11.30859375 4.1328125 C-7.79532879 0.94891613 -4.68059321 0.00699416 0 0 Z " fill="#000000" transform="translate(306.30859375,43.8671875)"/>
<path d="M0 0 C0.845625 -0.00773437 1.69125 -0.01546875 2.5625 -0.0234375 C3.37976563 -0.02085938 4.19703125 -0.01828125 5.0390625 -0.015625 C5.77592285 -0.01336914 6.5127832 -0.01111328 7.27197266 -0.00878906 C9.72649462 0.29325334 11.31480613 0.88204038 13.375 2.25 C14.24352566 6.58149334 14.20126672 10.81980136 14.375 15.25 C7.445 14.755 7.445 14.755 0.375 14.25 C3.97479044 17.96228389 7.75847519 21.35516412 11.703125 24.69921875 C13.64173849 26.49741865 14.29323291 27.57977799 14.61328125 30.203125 C14.79165596 35.72335297 14.2952826 39.0281572 10.375 43.25 C0.52019451 48.96578718 -9.84666961 47.0463884 -20.625 45.25 C-21.12 37.825 -21.12 37.825 -21.625 30.25 C-19.315 30.58 -17.005 30.91 -14.625 31.25 C-12.81379284 31.44960242 -11.00135239 31.63856895 -9.1875 31.8125 C-8.32253906 31.89628906 -7.45757812 31.98007813 -6.56640625 32.06640625 C-5.60541016 32.15728516 -5.60541016 32.15728516 -4.625 32.25 C-7.49034846 29.20556726 -10.32008741 26.71090751 -13.75 24.3125 C-17.29060091 21.6888411 -19.29964639 19.57948845 -20.625 15.25 C-20.52844308 9.84281246 -19.15181358 6.34872929 -15.625 2.25 C-10.46359807 -0.08888413 -5.55236076 -0.05125256 0 0 Z " fill="#000000" transform="translate(399.625,43.75)"/>
<path d="M0 0 C8.91 0 17.82 0 27 0 C26.855625 2.000625 26.71125 4.00125 26.5625 6.0625 C25.65260868 19.68500334 25.40282694 33.35530859 25 47 C15.76 47 6.52 47 -3 47 C-2.85691406 45.04835937 -2.71382812 43.09671875 -2.56640625 41.0859375 C-1.96045405 32.60260665 -1.44453046 24.11472553 -0.9375 15.625 C-0.8457749 14.09895402 -0.75397839 12.57291233 -0.66210938 11.046875 C-0.44045635 7.36463918 -0.22025496 3.68232076 0 0 Z " fill="#000000" transform="translate(56,43)"/>
<path d="M0 0 C1.8421106 0.00737183 1.8421106 0.00737183 3.72143555 0.01489258 C29.35769502 0.34401698 52.8341351 7.47823089 71.12109375 26.16015625 C74.76022306 30.1441407 79.3125 35.68302131 79.3125 41.3125 C76.546875 41.62890625 76.546875 41.62890625 73.3125 41.3125 C71.328125 39.15234375 71.328125 39.15234375 69.5625 36.25 C60.94500647 23.53593284 47.14870906 18.69262719 32.546875 15.87109375 C18.18527957 13.3907699 4.7035822 14.12334814 -9.5703125 16.65625 C-12.6491742 17.18953051 -15.55231581 17.46359321 -18.6875 17.3125 C-18.85765625 16.70921875 -19.0278125 16.1059375 -19.203125 15.484375 C-20.64939671 10.71475553 -21.81877043 7.64761169 -25.6875 4.3125 C-25.6875 3.6525 -25.6875 2.9925 -25.6875 2.3125 C-17.07302596 0.59863072 -8.7758609 -0.04176387 0 0 Z " fill="#BB2D1A" transform="translate(107.6875,-0.3125)"/>
<path d="M0 0 C0.495 7.425 0.495 7.425 1 15 C-2.75976562 15.53710938 -2.75976562 15.53710938 -6.51953125 16.07421875 C-9.87533292 17.32669906 -10.42041719 18.83417883 -12 22 C-12.58236281 24.6910342 -12.58236281 24.6910342 -12.73046875 27.51953125 C-12.81103516 28.54111328 -12.89160156 29.56269531 -12.97460938 30.61523438 C-13.04486328 31.67033203 -13.11511719 32.72542969 -13.1875 33.8125 C-13.26935547 34.88693359 -13.35121094 35.96136719 -13.43554688 37.06835938 C-13.63524272 39.71139266 -13.81916876 42.35560906 -14 45 C-19.94 45 -25.88 45 -32 45 C-31.67 30.48 -31.34 15.96 -31 1 C-24.33333333 1 -17.66666667 1 -11 1 C-7.57067929 -0.71466036 -3.78283935 -0.05404056 0 0 Z " fill="#000000" transform="translate(239,44)"/>
<path d="M0 0 C4.30288544 2.07278783 6.41700141 4.95272971 8.28515625 9.29296875 C9.6926808 13.75850794 9.38383253 17.14603811 7.81640625 21.5 C5.24819548 25.43792318 2.1991546 28.24612583 -2.05859375 30.375 C-8.57682752 31.18480094 -12.79369983 30.29786213 -18.05859375 26.375 C-21.54674251 22.70797182 -22.35139276 19.80103649 -22.55859375 14.875 C-22.35829124 9.9542349 -21.48776447 7.07489473 -18.05859375 3.375 C-12.71436056 -1.4602586 -6.78340653 -2.05947826 0 0 Z " fill="#000000" transform="translate(77.05859375,3.625)"/>
<path d="M0 0 C3.0625 1.875 3.0625 1.875 5 5 C5.68985972 8.79707911 5.72899181 12.20696448 5 16 C2.7984026 18.89683868 1.21405538 20.39297231 -2 22 C-7.29449372 22.34717992 -10.74663444 22.52421718 -15 19 C-17.75199394 15.88107353 -18.22806081 13.53801787 -18 9.5 C-17.32292715 4.98618099 -15.67611283 2.80084787 -12 0 C-7.79069077 -1.40310308 -4.2838032 -1.05031952 0 0 Z M-9 2 C-9 2.33 -9 2.66 -9 3 C-7.02 3 -5.04 3 -3 3 C-3 2.67 -3 2.34 -3 2 C-4.98 2 -6.96 2 -9 2 Z M-3 3 C-2.01 4.485 -2.01 4.485 -1 6 C-0.875 8.6875 -0.875 8.6875 -1 11 C-1.99 11.495 -1.99 11.495 -3 12 C-1.68 13.65 -0.36 15.3 1 17 C3.34168764 13.48746854 3.49623677 12.13530644 3 8 C1.25590249 5.1099784 1.25590249 5.1099784 -1 3 C-1.66 3 -2.32 3 -3 3 Z M-12 4 C-14.25017908 6.34018624 -14.96442406 7.75605071 -15.4375 11 C-15.22123934 14.57564746 -15.22123934 14.57564746 -11 18 C-11 13.38 -11 8.76 -11 4 C-11.33 4 -11.66 4 -12 4 Z M-7 7 C-7 7.66 -7 8.32 -7 9 C-6.34 9 -5.68 9 -5 9 C-5 8.34 -5 7.68 -5 7 C-5.66 7 -6.32 7 -7 7 Z M-7 13 C-7 14.65 -7 16.3 -7 18 C-8.32 18.33 -9.64 18.66 -11 19 C-7.59679066 19.67673447 -7.59679066 19.67673447 -4 20 C-3.34 19.34 -2.68 18.68 -2 18 C-2.66 17.67 -3.32 17.34 -4 17 C-5.125 14.9375 -5.125 14.9375 -6 13 C-6.33 13 -6.66 13 -7 13 Z " fill="#000000" transform="translate(428,18)"/>
<path d="M0 0 C0.66 0 1.32 0 2 0 C2.66 1.32 3.32 2.64 4 4 C4.66 2.68 5.32 1.36 6 0 C6.66 0 7.32 0 8 0 C8 0.99 8 1.98 8 3 C13.61 3 19.22 3 25 3 C25 3.33 25 3.66 25 4 C21.93852743 4.50642925 18.87567701 5.00399322 15.8125 5.5 C14.94818359 5.64308594 14.08386719 5.78617188 13.19335938 5.93359375 C9.09473423 6.59314262 5.16773976 7.20709266 1 7 C0.67 4.69 0.34 2.38 0 0 Z " fill="#AC3122" transform="translate(88,10)"/>
<path d="M0 0 C1.65 0 3.3 0 5 0 C5.33 0.99 5.66 1.98 6 3 C8.31 3 10.62 3 13 3 C9.9530371 4.69433918 7.17178534 5.49467112 3.75 6.125 C2.41195312 6.37636719 2.41195312 6.37636719 1.046875 6.6328125 C0.37140625 6.75398437 -0.3040625 6.87515625 -1 7 C-0.67 4.69 -0.34 2.38 0 0 Z " fill="#A92F1F" transform="translate(98,122)"/>
<path d="M0 0 C0 1.32 0 2.64 0 4 C-1.4800841 3.88637738 -2.95910074 3.75877092 -4.4375 3.625 C-5.26121094 3.55539063 -6.08492187 3.48578125 -6.93359375 3.4140625 C-7.61550781 3.27742188 -8.29742187 3.14078125 -9 3 C-9.33 2.34 -9.66 1.68 -10 1 C-6.52674819 -0.1577506 -3.63932552 -0.06866652 0 0 Z " fill="#963820" transform="translate(52,124)"/>
<path d="M0 0 C0.99 0 1.98 0 3 0 C3.33 1.65 3.66 3.3 4 5 C-1.28 4.34 -6.56 3.68 -12 3 C-12 2.67 -12 2.34 -12 2 C-8.04 2 -4.08 2 0 2 C0 1.34 0 0.68 0 0 Z " fill="#9A2D18" transform="translate(140,11)"/>
<path d="M0 0 C1.05960938 0.00676758 1.05960938 0.00676758 2.140625 0.01367188 C3.88545275 0.02546125 5.630237 0.04339676 7.375 0.0625 C7.375 0.3925 7.375 0.7225 7.375 1.0625 C1.765 1.7225 -3.845 2.3825 -9.625 3.0625 C-9.625 2.4025 -9.625 1.7425 -9.625 1.0625 C-6.55966836 -0.47016582 -3.35745728 -0.04026471 0 0 Z " fill="#8E2A16" transform="translate(105.625,12.9375)"/>
<path d="M0 0 C-0.99 0.66 -1.98 1.32 -3 2 C-3.99 3.485 -3.99 3.485 -5 5 C-6.5 3.625 -6.5 3.625 -8 2 C-8 1.34 -8 0.68 -8 0 C-4.94736336 -0.98120464 -3.05263664 -0.98120464 0 0 Z " fill="#A92618" transform="translate(90,2)"/>
<path d="M0 0 C1.32 0 2.64 0 4 0 C4.33 0.99 4.66 1.98 5 3 C4 4 4 4 1.4375 4.0625 C0.2309375 4.0315625 0.2309375 4.0315625 -1 4 C-0.67 2.68 -0.34 1.36 0 0 Z " fill="#993A2A" transform="translate(99,124)"/>
<path d="M0 0 C-2.31 1.65 -4.62 3.3 -7 5 C-7.66 3.68 -8.32 2.36 -9 1 C-2.25 -1.125 -2.25 -1.125 0 0 Z " fill="#A2331B" transform="translate(153,107)"/>
<path d="M0 0 C2 1.375 2 1.375 4 3 C4 3.66 4 4.32 4 5 C1.03 4.505 1.03 4.505 -2 4 C-1.34 2.68 -0.68 1.36 0 0 Z " fill="#A73019" transform="translate(172,20)"/>
</svg>
