<?xml version="1.0" standalone="no"?>
<!DOCTYPE svg PUBLIC "-//W3C//DTD SVG 20010904//EN"
 "http://www.w3.org/TR/2001/REC-SVG-20010904/DTD/svg10.dtd">
<svg version="1.0" xmlns="http://www.w3.org/2000/svg"
 width="300.000000pt" height="90.000000pt" viewBox="0 0 300.000000 90.000000"
 preserveAspectRatio="xMidYMid meet">
<metadata>
Created by potrace 1.10, written by Peter Selinger 2001-2011
</metadata>
<g transform="translate(0.000000,90.000000) scale(0.100000,-0.100000)"
fill="#000000" stroke="none">
<path d="M570 885 c0 -3 9 -14 20 -25 11 -11 23 -34 27 -51 4 -23 10 -28 22
-24 28 12 134 25 201 25 175 0 336 -64 395 -158 11 -17 28 -31 38 -32 24 0 22
10 -14 64 -77 115 -248 199 -414 204 l-60 1 40 -19 c22 -11 33 -20 25 -21 -8
-1 -28 -2 -45 -4 -16 -1 -57 -6 -91 -10 -52 -6 -62 -5 -67 9 -5 13 1 18 23 23
57 11 41 23 -29 23 -39 0 -71 -2 -71 -5z"/>
<path d="M445 871 c-34 -15 -56 -47 -62 -90 -5 -36 -2 -44 30 -76 28 -28 43
-35 73 -35 91 1 137 103 77 170 -30 33 -82 46 -118 31z m80 -56 c31 -30 31
-45 4 -79 -27 -34 -64 -32 -91 5 -15 20 -17 30 -9 52 9 24 37 44 64 46 4 1 19
-10 32 -24z"/>
<path d="M305 793 c-145 -78 -279 -241 -292 -355 -7 -53 10 -43 33 20 10 26
26 59 36 74 10 14 18 29 18 33 0 3 13 20 30 38 16 18 30 35 30 39 0 3 32 30
72 59 67 48 72 51 85 33 22 -30 15 -46 -52 -116 -83 -87 -109 -142 -110 -233
0 -85 20 -131 85 -193 74 -72 181 -112 338 -128 40 -3 75 -11 78 -15 3 -5 -1
-9 -8 -9 -8 0 -23 -7 -34 -16 -18 -14 -15 -15 41 -10 83 8 137 23 250 69 85
34 155 70 155 78 0 4 -28 -1 -62 -12 -35 -11 -76 -22 -93 -25 -16 -3 -50 -10
-75 -16 -25 -6 -103 -10 -175 -11 -140 0 -217 15 -307 60 -217 107 -216 325 2
495 l35 27 -18 30 c-9 16 -17 45 -17 65 0 40 -3 42 -45 19z"/>
<path d="M2873 765 c-46 -32 -36 -113 16 -135 57 -23 111 14 111 75 0 61 -75
96 -127 60z m100 -27 c19 -22 22 -45 7 -68 -8 -13 -11 -12 -24 5 -10 14 -11
24 -4 32 17 21 1 43 -32 43 -29 0 -30 -1 -30 -50 0 -27 5 -50 10 -50 6 0 10 9
10 20 0 27 13 25 27 -5 10 -23 9 -25 -15 -25 -61 0 -84 71 -35 109 30 24 58
20 86 -11z"/>
<path d="M387 483 c-4 -65 -9 -137 -13 -160 l-7 -43 97 0 96 0 -6 38 c-6 38
10 235 22 265 5 15 -4 17 -88 17 l-95 0 -6 -117z m129 66 c3 -6 3 -58 -1 -115
-7 -98 -8 -104 -30 -110 -13 -3 -33 -3 -45 1 -21 7 -22 10 -15 113 4 59 9 110
12 115 7 11 71 8 79 -4z"/>
<path d="M840 593 c-8 -3 -23 -12 -32 -21 -16 -14 -18 -13 -18 1 0 14 -11 17
-60 17 l-60 0 0 -87 c0 -49 -3 -118 -7 -155 l-6 -68 62 0 61 0 1 73 c0 93 16
141 48 145 38 6 44 -10 42 -117 l-1 -101 58 0 59 0 6 116 c7 138 -2 170 -49
190 -34 14 -77 17 -104 7z m-75 -53 l27 -10 -21 -34 c-12 -19 -24 -60 -27 -95
-6 -57 -17 -81 -31 -67 -10 10 -2 190 9 203 13 16 10 15 43 3z m176 -7 c16
-19 14 -181 -2 -198 -17 -17 -29 16 -29 84 0 53 -4 70 -26 98 l-25 33 34 0
c20 0 40 -7 48 -17z"/>
<path d="M1184 584 c-92 -23 -134 -75 -134 -166 0 -46 5 -62 26 -87 35 -42 90
-56 143 -37 38 13 41 12 41 -5 0 -10 -11 -26 -25 -35 -25 -16 -69 -16 -134 2
-23 7 -24 6 -18 -35 3 -24 8 -45 11 -48 15 -15 115 -22 164 -12 87 18 112 56
113 177 0 42 4 113 8 157 4 44 6 82 4 85 -10 11 -159 14 -199 4z m147 -160
c-4 -154 -10 -182 -44 -207 -35 -27 -45 -16 -18 19 27 34 27 52 -1 81 l-21 23
23 25 c32 34 40 121 14 159 l-17 28 34 -4 34 -3 -4 -121z m-181 74 c-27 -44
-25 -86 5 -131 25 -36 25 -37 5 -37 -12 0 -32 11 -45 25 -35 34 -35 102 1 144
36 43 60 42 34 -1z m110 -41 c0 -67 -25 -97 -65 -79 -20 9 -25 19 -25 50 0 50
23 82 61 82 28 0 29 -1 29 -53z"/>
<path d="M1600 593 c-8 -3 -24 -13 -34 -22 -18 -15 -19 -15 -13 2 6 15 0 17
-47 17 l-53 0 -7 -132 c-4 -73 -10 -143 -13 -156 -5 -21 -3 -22 61 -22 l66 0
0 83 c0 96 13 123 65 133 33 6 34 7 31 53 -2 47 -17 59 -56 44z m-37 -62 c18
-7 18 -8 1 -21 -24 -21 -44 -73 -44 -117 0 -48 -14 -73 -31 -56 -8 8 -9 39 -4
107 7 96 7 96 33 95 15 0 35 -4 45 -8z"/>
<path d="M1772 590 c-41 -9 -38 -6 -46 -59 -6 -39 -5 -43 11 -36 10 4 44 10
76 13 80 6 73 -12 -15 -39 -87 -27 -118 -54 -118 -104 0 -55 35 -85 100 -85
33 0 50 4 50 13 0 6 3 22 6 35 5 19 2 22 -19 22 -29 0 -44 17 -30 31 5 5 24
14 43 19 l33 9 -6 -65 -5 -65 59 3 59 3 6 122 c3 82 1 130 -6 144 -23 42 -112
60 -198 39z m152 -56 c18 -17 19 -37 9 -136 -4 -47 -10 -68 -19 -68 -9 0 -14
11 -14 29 0 15 -9 40 -20 54 -19 24 -19 26 -3 56 15 25 16 34 6 51 -7 11 -13
22 -13 25 0 12 40 4 54 -11z m-169 -164 c0 -42 -18 -50 -23 -11 -3 17 12 51
22 51 1 0 1 -18 1 -40z"/>
<path d="M2093 589 c-66 -20 -85 -95 -35 -141 15 -14 39 -33 55 -43 51 -32 27
-49 -45 -30 l-48 12 0 -47 c0 -57 5 -60 105 -60 64 0 77 3 104 26 58 48 38
108 -60 176 -23 15 -23 17 -5 24 10 4 37 3 58 -3 l39 -10 -7 46 c-4 25 -7 47
-8 48 -6 8 -128 10 -153 2z m67 -49 c0 -5 -4 -10 -10 -10 -5 0 -12 -11 -16
-25 -5 -21 2 -35 40 -75 25 -27 46 -54 46 -60 0 -17 -39 -50 -60 -50 -24 0
-25 8 -5 38 19 26 12 42 -44 97 -45 43 -49 56 -25 79 17 18 74 22 74 6z"/>
<path d="M2695 585 c-22 -8 -41 -15 -41 -15 -1 0 -7 -13 -14 -30 -19 -46 -5
-75 56 -121 37 -27 52 -44 44 -49 -11 -7 -70 1 -102 15 -16 6 -17 2 -11 -41 3
-27 11 -52 17 -56 6 -4 43 -8 81 -8 86 0 129 22 138 70 9 43 -12 79 -62 110
-22 14 -41 31 -41 38 0 14 39 16 74 2 25 -9 26 -9 26 35 0 24 -4 46 -9 49 -23
15 -119 15 -156 1z m65 -44 c0 -5 -7 -14 -15 -21 -24 -20 -18 -40 30 -87 50
-49 56 -74 23 -97 -40 -28 -79 -15 -43 14 28 23 17 57 -30 96 -46 37 -57 68
-33 92 14 14 68 16 68 3z"/>
<path d="M2283 563 c8 -16 33 -85 57 -155 42 -124 43 -128 25 -148 -12 -13
-31 -20 -57 -20 -38 0 -38 0 -38 -40 0 -38 2 -40 33 -42 90 -4 140 13 168 58
12 20 52 111 89 205 l67 169 -62 0 c-60 0 -63 -1 -69 -27 -22 -98 -40 -153
-46 -141 -4 7 -15 48 -25 91 l-19 77 -68 0 -69 0 14 -27z m112 -88 c33 -81 51
-93 86 -59 15 14 32 45 38 69 10 41 26 63 37 52 4 -4 -27 -89 -83 -225 -24
-57 -70 -112 -94 -112 -14 0 -11 9 11 37 27 35 25 78 -8 170 -42 115 -46 135
-27 131 9 -2 27 -30 40 -63z"/>
<path d="M10 319 c0 -47 44 -134 91 -179 40 -38 137 -95 192 -111 40 -12 147
-23 147 -16 0 4 -36 18 -81 32 -188 59 -257 114 -313 245 -27 63 -36 70 -36
29z"/>
</g>
</svg>
